Format                                   : MPEG-4
Format profile                           : Base Media
Codec ID                                 : isom
File size                                : 1.75 GiB
Duration                                 : 1h 14mn
Overall bit rate mode                    : Variable
Overall bit rate                         : 3 378 Kbps
Movie name                               : Scooby-Doo and the Goblin King
Performer                                : Joe Sichta
Genre                                    : Kids & Family
Recorded date                            : UTC 2008-09-23 07:00:00
Tagged date                              : UTC 2012-12-23 01:54:53
                 
Video ID                                       : 1
Format                                   : AVC
Format/Info                              : Advanced Video Codec
Format profile                           : Baseline@L3.0
Format settings, CABAC                   : No
Format settings, ReFrames                : 3 frames
Codec ID                                 : avc1
Codec ID/Info                            : Advanced Video Coding
Duration                                 : 1h 14mn
Bit rate                                 : 3 247 Kbps
Width                                    : 1 280 pixels
Height                                   : 720 pixels
Display aspect ratio                     : 16:9
Frame rate mode                          : Constant
Frame rate                               : 23.976 fps
Color space                              : YUV
Chroma subsampling                       : 4:2:0
Bit depth                                : 8 bits
Scan type                                : Progressive
Bits/(Pixel*Frame)                       : 0.147
Stream size                              : 1.68 GiB (96%)
Writing library                          : x264 core 102
Encoding settings                        : cabac=0 / ref=3 / deblock=1:0:0 / 
Audio
ID                                       : 2
Format                                   : AAC
Format/Info                              : Advanced Audio Codec
Format profile                           : LC
Codec ID                                 : 40
Duration                                 : 1h 14mn
Bit rate mode                            : Variable
Bit rate                                 : 128 Kbps
Maximum bit rate                         : 237 Kbps
Channel(s)                               : 2 channels
Channel positions                        : Front: L R
Sampling rate                            : 48.0 KHz
Compression mode                         : Lossy
Stream size                              : 67.8 MiB (4%)
Language                                 : English

Text
ID                                       : 3
Format                                   : Apple text
Codec ID                                 : text
Duration                                 : 1h 14mn
Bit rate mode                            : Variable
Bit rate                                 : 1 bps
Stream size                              : 366 Bytes (0%)
Encoded date                             : UTC 2012-12-23 01:54:53
Tagged date                              : UTC 2012-12-23 01:54:53


Storyline

Scooby-Doo and Shaggy must go into the underworld ruled by the Goblin King in order to stop a mortal named The Amazing Krudsky who wants power and is a threat to their pals, Fred, Velma and Daphne. 